<?xml version="1.0" encoding="utf-8"?>
<!-- Generator: Adobe Illustrator 25.4.1, SVG Export Plug-In . SVG Version: 6.00 Build 0)  -->
<svg version="1.1"
	 id="Layer_1" image-rendering="optimizeQuality" shape-rendering="geometricPrecision" text-rendering="geometricPrecision"
	 xmlns="http://www.w3.org/2000/svg" xmlns:xlink="http://www.w3.org/1999/xlink" x="0px" y="0px" viewBox="0 0 150 150"
	 style="enable-background:new 0 0 150 150;" xml:space="preserve">
<style type="text/css">
	.st0{fill-rule:evenodd;clip-rule:evenodd;fill:#FFFFFF;}
</style>
<g id="Layer_x0020_1">
	<path class="st0" d="M35.4,103.8c-8.1,0-6.5,1.1-6.6-11.1v-9.1c0-2.7,3.6-2,6.6-2c5.8,0,8.6,7,4.8,11.1
		C44,96.8,41.2,103.8,35.4,103.8z M107.3,110.4H42.7v4c0,4.4-3.6,8-8,8H9.2c-4.4,0-8-3.5-8-8V94.8c0-4.3,3.5-8,8-8h10.3v-3.9
		c0-4.4,3.5-8,8-8h95.2c4.4,0,8,3.5,8,8v3.9h10.3c4.3,0,8,3.6,8,8v19.6c0,4.4-3.6,8-8,8h-25.6c-4.4,0-8-3.5-8-8V110.4z M130.5,90.9
		v11.6c0,4.1-3.4,7.9-7.3,8h-11.8v4c0,2.2,1.7,3.9,3.9,3.9h25.6c2.2,0,3.9-1.7,3.9-3.9V94.8c0-2.2-1.7-3.9-3.9-3.9H130.5z M27.4,79
		c-2.2,0-3.9,1.8-3.9,4v19.5c0,2.2,1.7,4,3.9,4h95.2c2.2,0,3.9-1.8,3.9-4V82.9c0-2.2-1.7-4-3.9-4H27.4z M9.2,90.9
		c-2.2,0-3.9,1.7-3.9,3.9v19.6c0,2.2,1.7,3.9,3.9,3.9h25.6c2.2,0,3.9-1.7,3.9-3.9v-4H27.4c-4.4,0-8-3.5-8-8V90.9H9.2z M64.7,69.9
		c-3.2,0-5.7-3-5.1-6.1l1.7-8.8l-6.6-6.1c-3.1-2.9-1.4-8.4,2.9-8.9l8.9-1.1l3.8-8.1c1.8-3.9,7.5-3.9,9.4,0l3.7,8.1l9,1.1
		c4.2,0.5,6,6,2.9,8.9l-6.6,6.1l1.7,8.8c0.8,4.1-3.8,7.5-7.6,5.4L75,64.9l-7.8,4.3C66.3,69.6,65.4,69.9,64.7,69.9z M75,31.7
		c-0.4,0-0.8,0.3-1,0.7l-4.3,9.2c-0.3,0.6-0.9,1-1.6,1.1l-10,1.2c-1,0.2-1.3,1.3-0.6,2l7.3,6.8c0.5,0.5,0.7,1.2,0.6,1.9l-1.9,9.9
		c-0.2,1,0.8,1.7,1.6,1.2l8.8-4.8c0.6-0.3,1.3-0.3,2,0l8.8,4.8c0.8,0.5,1.8-0.3,1.6-1.2l-1.9-9.9c-0.2-0.7,0.1-1.4,0.5-1.9l7.4-6.8
		c0.7-0.7,0.3-1.8-0.7-2l-9.9-1.2c-0.7-0.1-1.3-0.5-1.6-1.2L76,32.4C75.8,31.9,75.5,31.7,75,31.7z M105,69.3c-2.4,0-4.3-2.2-3.9-4.7
		l1-4.9c-2.7-2.4-5.7-4.3-4.8-7.4c1-3.2,4.7-2.9,8.2-3.3c1.6-3.3,2.4-6.8,5.7-6.8c3.3,0,4.1,3.5,5.6,6.8c3.6,0.4,7.2,0.1,8.2,3.3
		c1,3.1-2.1,5-4.7,7.4c0.7,3.5,2.1,6.9-0.6,8.8c-2.7,2-5.4-0.3-8.6-2.2C109.6,67.2,106.6,69.3,105,69.3z M111.2,62
		c1.1,0,4.9,2.5,6.1,3.1c-1.6-8.2-2.3-6,3.7-11.6c-8.3-1-6.3,0.3-9.9-7.2c-3.5,7.5-1.6,6.1-9.9,7.2c6.1,5.6,5.4,3.4,3.8,11.6
		C106.3,64.4,110.1,62,111.2,62z M32.5,69.3c-2.3,0-4.2-2.2-3.8-4.7l1-4.9c-2.7-2.4-5.7-4.3-4.8-7.4c1-3.2,4.7-2.9,8.2-3.3
		c1.6-3.3,2.4-6.8,5.7-6.8c3.3,0,4.1,3.5,5.6,6.8c3.6,0.4,7.2,0.1,8.2,3.3c1,3.1-2.1,5-4.7,7.4c0.7,3.5,2.1,6.9-0.6,8.8
		c-2.7,2-5.4-0.3-8.6-2.2C37.3,67.2,34.2,69.3,32.5,69.3z M38.8,62c1,0,4.9,2.5,6.1,3.1c-1.6-8.2-2.3-6,3.8-11.6
		c-8.3-1-6.4,0.3-9.9-7.2c-3.5,7.5-1.6,6.1-9.9,7.2c6.1,5.6,5.4,3.4,3.8,11.6C33.8,64.4,37.6,62,38.8,62z M98.5,103.8
		c-0.7,0-1.3-0.3-1.6-0.8l-9.6-13.1v11.9c0,2.6-4,2.6-4,0V83.7c0-1.9,2.5-2.8,3.6-1.2l9.5,13.1V83.7c0-2.6,4.1-2.6,4.1,0v18.1
		C100.5,102.9,99.5,103.8,98.5,103.8z M112.5,103.8h-6.6c-1.1,0-2-0.9-2-2V83.7c0-1.1,0.9-2,2-2h6.6c4.8,0,8.6,3.8,8.6,8.6v4.9
		C121.1,100,117.2,103.8,112.5,103.8z M107.9,99.8h4.6c2.6,0,4.6-2.1,4.6-4.6v-4.8c0-2.6-2-4.6-4.6-4.6h-4.6V99.8z M77.8,103.8
		c-2.7,0-2-3.6-2-6.2h-7.3c0,2.6,0.7,6.3-2,6.3c-1.1,0-2.1-1-2.1-2.1V89.2c0-4.2,3.5-7.6,7.7-7.6s7.6,3.4,7.6,7.6v12.5
		C79.8,102.9,78.9,103.8,77.8,103.8z M75.8,93.5v-4.2c0-4.8-7.3-4.8-7.3,0v4.2H75.8z M47.4,103.8c-1.1,0-2-0.9-2-2V83.6
		c0-1.1,1-2,2.1-2h6.5c8,0,9.8,10.9,2.7,13.7l2.2,5.7c0.9,2.5-2.9,3.9-3.8,1.4l-2.4-6.6h-3.1v5.9C49.5,102.9,48.5,103.8,47.4,103.8z
		 M49.5,85.6v6.3c2.7,0,7.6,0.9,7.6-3.2c0-1.7-1.4-3.1-3.1-3.1H49.5z M32.9,90.7c2,0,5.1,0.3,5.1-2.6c0-2.9-3.1-2.5-5.1-2.5V90.7z
		 M32.9,99.8c2,0,5.1,0.3,5.1-2.5c0-2.9-3.1-2.6-5.1-2.6V99.8z"/>
</g>
</svg>
