<?xml version="1.0" encoding="utf-8"?>
<!-- Generator: Adobe Illustrator 25.4.1, SVG Export Plug-In . SVG Version: 6.00 Build 0)  -->
<svg version="1.1" id="Layer_1" xmlns="http://www.w3.org/2000/svg" xmlns:xlink="http://www.w3.org/1999/xlink" x="0px" y="0px"
	 viewBox="0 0 370 370" style="enable-background:new 0 0 370 370;" xml:space="preserve">
<g>
	<g>
		<g>
			<path d="M146.9,354c-20,0-36.3-16.3-36.3-36.3s16.3-36.3,36.3-36.3s36.3,16.3,36.3,36.3S166.9,354,146.9,354L146.9,354z
				 M146.9,304.2c-7.5,0-13.5,6.1-13.5,13.5s6.1,13.5,13.5,13.5c7.5,0,13.5-6.1,13.5-13.5C160.4,310.3,154.3,304.2,146.9,304.2z"/>
			<path d="M273.1,354c-20,0-36.3-16.3-36.3-36.3s16.3-36.3,36.3-36.3c20,0,36.3,16.3,36.3,36.3S293.1,354,273.1,354z M273.1,304.2
				c-7.5,0-13.5,6.1-13.5,13.5s6.1,13.5,13.5,13.5s13.5-6.1,13.5-13.5S280.6,304.2,273.1,304.2z"/>
		</g>
		<path d="M299.6,253.3H120.7c-17.4,0-32.3-11.8-36.2-28.8L47.4,62.3c-0.5-2.1-2-4-4-4.9L12.7,43.1C5.5,39.8,2.4,31.4,5.7,24.2
			C9,17,17.5,13.9,24.7,17.3l30.8,14.3c9.9,4.6,17.3,13.7,19.7,24.3l37.2,162.2c0.9,3.9,4.3,6.7,8.4,6.7h178.9
			c4.1,0,7.5-2.7,8.4-6.7l28.9-124.2c0.9-3.6-0.7-6.1-1.6-7.3c-1-1.2-3.1-3.3-6.8-3.3H117.8c-7.8,0-14.2-6.4-14.2-14.2
			s6.4-14.2,14.2-14.2h210.7c11.4,0,22,5.1,29,14c7,8.9,9.7,20.4,7.1,31.5l-28.9,124.2C331.9,241.5,317,253.3,299.6,253.3
			L299.6,253.3z"/>
	</g>
</g>
</svg>
