<?xml version="1.0" encoding="utf-8"?>
<!-- Generator: Adobe Illustrator 25.4.1, SVG Export Plug-In . SVG Version: 6.00 Build 0)  -->
<svg version="1.1" id="Layer_1" xmlns="http://www.w3.org/2000/svg" xmlns:xlink="http://www.w3.org/1999/xlink" x="0px" y="0px"
	 viewBox="0 0 150 150" style="enable-background:new 0 0 150 150;" xml:space="preserve">
<style type="text/css">
	.st0{fill:#FFFFFF;}
</style>
<path class="st0" d="M111.7,23.6h-0.8v-14c0-2.8-1.3-5.2-3.5-6.8c-2.3-1.6-5-2-7.6-1.1L37.9,23.6c-5.2,0.2-9.3,4.5-9.3,9.7v105.8
	c0,5.4,4.4,9.7,9.7,9.7h73.4c5.4,0,9.7-4.4,9.7-9.7V33.3C121.4,27.9,117.1,23.6,111.7,23.6L111.7,23.6z M101.3,6
	c1.2-0.4,2.4-0.3,3.4,0.5c1,0.7,1.6,1.8,1.6,3v14H51.7L101.3,6z M116.8,139.1c0,2.8-2.3,5.1-5.1,5.1H38.3c-2.8,0-5.1-2.3-5.1-5.1
	V33.3c0-2.8,2.3-5.1,5.1-5.1h0h0h73.4c2.8,0,5.1,2.3,5.1,5.1L116.8,139.1L116.8,139.1z M108.1,48.3c0,1.3-1,2.3-2.3,2.3H74.4
	c-1.3,0-2.3-1-2.3-2.3c0-1.3,1-2.3,2.3-2.3h31.4C107.1,46,108.1,47.1,108.1,48.3z M72.1,59.5c0-1.3,1-2.3,2.3-2.3h13.9
	c1.3,0,2.3,1,2.3,2.3c0,1.3-1,2.3-2.3,2.3H74.4C73.2,61.8,72.1,60.7,72.1,59.5z M60,42.4H46.8c-2.7,0-4.8,2.2-4.8,4.8v13.2
	c0,2.7,2.2,4.8,4.8,4.8H60c2.7,0,4.8-2.2,4.8-4.8V47.3C64.8,44.6,62.7,42.4,60,42.4z M60.2,60.5c0,0.1-0.1,0.2-0.2,0.2H46.8
	c-0.1,0-0.2-0.1-0.2-0.2V47.3c0-0.1,0.1-0.2,0.2-0.2H60c0.1,0,0.2,0.1,0.2,0.2V60.5z M60,74.7H46.8c-2.7,0-4.8,2.2-4.8,4.8v13.3
	c0,2.7,2.2,4.8,4.8,4.8H60c2.7,0,4.8-2.2,4.8-4.8V79.6C64.8,76.9,62.7,74.7,60,74.7L60,74.7z M60.2,92.8c0,0.1-0.1,0.2-0.2,0.2H46.8
	c-0.1,0-0.2-0.1-0.2-0.2V79.6c0-0.1,0.1-0.2,0.2-0.2H60c0.1,0,0.2,0.1,0.2,0.2V92.8z M60,107H46.8c-2.7,0-4.8,2.2-4.8,4.8v13.2
	c0,2.7,2.2,4.8,4.8,4.8H60c2.7,0,4.8-2.2,4.8-4.8v-13.2C64.8,109.2,62.7,107,60,107z M60.2,125.1c0,0.1-0.1,0.2-0.2,0.2H46.8
	c-0.1,0-0.2-0.1-0.2-0.2v-13.2c0-0.1,0.1-0.2,0.2-0.2H60c0.1,0,0.2,0.1,0.2,0.2V125.1z M108.1,80.6c0,1.3-1,2.3-2.3,2.3H74.4
	c-1.3,0-2.3-1-2.3-2.3c0-1.3,1-2.3,2.3-2.3h31.4C107.1,78.3,108.1,79.4,108.1,80.6z M72.1,91.8c0-1.3,1-2.3,2.3-2.3h13.9
	c1.3,0,2.3,1,2.3,2.3s-1,2.3-2.3,2.3H74.4C73.2,94.1,72.1,93,72.1,91.8z M108.1,113c0,1.3-1,2.3-2.3,2.3H74.4c-1.3,0-2.3-1-2.3-2.3
	c0-1.3,1-2.3,2.3-2.3h31.4C107.1,110.6,108.1,111.7,108.1,113z M90.7,124.1c0,1.3-1,2.3-2.3,2.3H74.4c-1.3,0-2.3-1-2.3-2.3
	c0-1.3,1-2.3,2.3-2.3h13.9C89.6,121.7,90.7,122.8,90.7,124.1z"/>
</svg>
