<?xml version="1.0" encoding="utf-8"?>
<!-- Generator: Adobe Illustrator 25.4.1, SVG Export Plug-In . SVG Version: 6.00 Build 0)  -->
<svg version="1.1" id="Layer_1" xmlns="http://www.w3.org/2000/svg" xmlns:xlink="http://www.w3.org/1999/xlink" x="0px" y="0px"
	 viewBox="0 0 150.3 150.3" style="enable-background:new 0 0 150.3 150.3;" xml:space="preserve">
<style type="text/css">
	.st0{fill:#FFFFFF;}
</style>
<g>
	<g transform="matrix(.1 0 0 -.1 0 511)">
		<path class="st0" d="M609,5095.1c-21.2-7.3-45.5-33.2-51.3-54.4l-4.6-18.1h-17.7c-22.4,0-48.2-12.7-63.3-32
			c-30.1-38.2-8.9-100.3,39.4-114.6c9.3-3.1,55.6-3.9,136.2-3.1l121.9,1.2l15.4,10.4c23.5,15.4,33.9,34.7,33.9,63.7
			c0,20.1-1.5,26.2-11.6,40.1c-14.7,20.8-39.7,34.3-63.7,34.3c-17,0-18.5,0.8-21.2,10.8c-5,20.4-21.2,42.8-38.6,53.2
			C663.8,5098.1,629.8,5102,609,5095.1L609,5095.1z M659.9,5029.5c3.5-4.2,6.6-12.4,6.6-18.1c0-13.9,12.7-33.6,26.6-40.9
			c6.6-3.1,21.2-5.8,34.3-5.8c12.4,0,24.3-1.9,27-4.6c6.9-6.9,5.4-21.6-2.7-26.2c-4.6-2.3-47.8-3.9-113-3.9
			c-89.1,0-106.9,0.8-114.2,6.2c-19.3,13.5-5.8,28.6,25.5,28.6c13.9,0,27,2.7,35.1,6.9c15,8.1,27.4,28.2,27.4,44
			C612.5,5038.7,644.1,5048.4,659.9,5029.5L659.9,5029.5z"/>
		<path class="st0" d="M208.5,4952.7c-20.1-10-41.7-33.6-52.9-57.1l-8.1-17.7v-513.2v-513.2l8.1-17.7c10-21.2,30.5-42.8,52.9-54.4
			l16.2-8.9l271.2-1.2c149.3-0.4,270.9,0.4,270.1,1.9c-0.4,1.9-5.4,15-10.8,29.3l-9.6,25.9H497.5c-273.6,0-267.4-0.4-282.4,23.9
			c-7.7,12.7-7.7,18.1-7.7,513.5c0,455.3,0.4,502.4,6.2,514.3c11.2,23.5,15,24.7,91.1,24.7c65.6,0,68.7-0.4,68.7-7.7
			c0-15.8,16.6-50.5,33.2-69.1c10-11.2,26.6-23.9,39.4-30.1l22-10.8l163.6-1.2c179.4-1.2,181-1.2,217.6,22.4
			c27,17,46.3,47.5,54.8,86.4l2.3,10.8l60.6-1.5c67.9-1.5,84.5-6.2,97.6-27.8c6.9-11.6,7.3-25.5,7.3-322.9v-310.6l28.9-3.9l28.9-3.5
			l-0.8,326l-1.2,326l-12.4,19.3c-6.9,10.8-20.8,24.7-30.9,31.6c-32.8,21.6-49.8,24.3-153.9,24.3H837l3.5-14.3
			c5-21.6,4.2-49.8-1.9-64c-6.6-16.2-25.5-32-44-37.4c-8.5-2.3-71.4-3.9-159.4-3.9H490.5l-19.3,9.6c-33.9,17-44.4,45.1-34.7,93.7
			l3.5,16.2H332.3C230.9,4960.8,223.9,4960.4,208.5,4952.7L208.5,4952.7z"/>
		<path class="st0" d="M369,4627.8c-10-7.7-15.4-21.2-12.7-31.6c5.4-22-4.2-21.2,284-21.2c260.4,0,265.5,0,273.2,7.7
			c11.6,11.6,10.4,32-2.3,42.1c-10,8.1-13.1,8.1-273.2,8.1C437.3,4632.4,373.6,4631.3,369,4627.8L369,4627.8z"/>
		<path class="st0" d="M367.1,4415.6c-13.5-11.6-14.3-30.5-1.9-42.4l8.5-8.5l253.5-1.2c139.3-0.8,259.3,0,266.2,1.2
			c27,5,36.7,31.6,18.1,50.2l-9.3,9.6H639.9H377.5L367.1,4415.6z"/>
		<path class="st0" d="M367.1,4207.3c-13.5-11.6-14.3-30.1-1.9-42.4l8.5-8.5l232.7-1.2l232.7-0.8l18.9,14.7
			c10.4,8.1,27.4,19.7,37.4,25.9c13.9,7.7,17.4,12,14.3,15c-3.1,3.1-80.2,4.6-268.2,5.4l-263.5,0.8L367.1,4207.3z"/>
		<path class="st0" d="M996.4,4202.6c-52.1-11.6-97.6-35.9-138.5-74.9c-62.1-59-91.8-129.6-91.4-216.4c0-48.6,8.9-86.8,29.7-127.7
			c93.8-186.4,339.9-222.2,480.4-69.8c30.5,32.8,47.8,61.7,61.7,101.1c58.3,164.8-37,343-206.4,385.8
			C1095.9,4209.6,1032.6,4210.7,996.4,4202.6L996.4,4202.6z M1137.2,4137.4c74.9-25.9,133.1-89.9,152.8-167.8
			c8.9-35.1,5.8-97.6-5.8-131.6c-33.2-95.3-120.4-158.6-220.3-159c-65.2-0.8-116.9,19.3-163.6,62.9c-30.1,28.2-48.2,55.6-63.3,95.3
			c-8.9,22.8-10,31.6-10,76c-0.4,56.7,6.2,81,31.6,123.5C915,4129.7,1035,4173.3,1137.2,4137.4z"/>
		<path class="st0" d="M1095.1,3951.8l-83.3-82.6l-39,38.2c-31.6,31.6-40.9,38.6-50.5,38.6c-15.4,0-28.2-13.9-28.2-30.9
			c0-11.6,5.8-18.9,51.3-64.4c71.8-72.2,57.1-75.2,173.6,40.5c50.5,50.2,94.5,96.1,97.6,101.9c10.8,20.4-3.1,41.7-27,41.7
			C1179.6,4034.8,1165.7,4022.8,1095.1,3951.8z"/>
		<path class="st0" d="M378.6,4005.1c-22.8-4.2-29.7-34.3-11.6-50.2l10.4-8.9h179h178.6l4.2,25.1c2.3,13.9,5.4,27.8,6.6,30.9
			c1.9,5-18.5,5.8-178.3,5.4C468.2,4007,382.9,4005.9,378.6,4005.1z"/>
	</g>
</g>
</svg>
