<?xml version="1.0" encoding="utf-8"?>
<!-- Generator: Adobe Illustrator 25.4.1, SVG Export Plug-In . SVG Version: 6.00 Build 0)  -->
<svg version="1.1" id="Layer_1" xmlns="http://www.w3.org/2000/svg" xmlns:xlink="http://www.w3.org/1999/xlink" x="0px" y="0px"
	 viewBox="0 0 150 150" style="enable-background:new 0 0 150 150;" xml:space="preserve">
<style type="text/css">
	.st0{fill:#FFFFFF;}
</style>
<g id="Electric_Plug-2">
	<path class="st0" d="M106.5,63.9c-0.4-0.7-1.2-1.2-2.1-1.2h-27V26c0-1.4-1.1-2.4-2.5-2.4c-0.9,0-1.7,0.5-2.2,1.3L43.4,83.7
		c-0.6,1.2-0.1,2.7,1.1,3.3c0.3,0.2,0.7,0.3,1.1,0.3h27V124c0,1.1,0.8,2.1,1.9,2.4c0.2,0,0.4,0.1,0.6,0.1c0.9,0,1.8-0.5,2.2-1.3
		l29.4-58.8C107,65.6,106.9,64.6,106.5,63.9z M77.5,113.6V84.8c0-1.4-1.1-2.5-2.5-2.5H49.6l23-46v28.8c0,1.4,1.1,2.5,2.5,2.5h25.4
		L77.5,113.6z"/>
	<path class="st0" d="M134.8,32.3c3.9-4.9,3.5-11.8-0.9-16.2L127,9.2c-1-0.9-2.5-0.9-3.5,0l-1.7,1.7L114.9,4l-3.5,3.5l6.9,6.9
		l-3.5,3.5l-6.9-6.9l-3.5,3.5l6.9,6.9l-1.7,1.7c-1,1-1,2.5,0,3.5l6.9,6.9c3.8,3.8,9.7,4.7,14.5,2.1c8.2,11.5,12.6,25.4,12.6,39.5
		c0,37.9-30.8,68.7-68.8,68.6c-8.9,0-17.7-1.7-25.9-5.1l-1.9,4.5c37.6,15.4,80.6-2.7,96-40.3c3.6-8.8,5.5-18.2,5.5-27.8
		C148.6,59.7,143.8,44.8,134.8,32.3z M130.5,30c-2.9,2.8-7.5,2.8-10.4,0l-5.2-5.2l10.4-10.4l5.2,5.2C133.3,22.4,133.3,27.1,130.5,30
		z"/>
	<path class="st0" d="M75,1.5C34.4,1.5,1.5,34.4,1.5,75c0,15.3,4.8,30.3,13.7,42.7c-3.9,4.9-3.5,11.8,0.9,16.2l6.9,6.9
		c0.5,0.5,1.1,0.7,1.7,0.7c0.7,0,1.3-0.2,1.7-0.7l1.7-1.7l6.9,6.9l3.5-3.5l-6.9-6.9l3.5-3.5l6.9,6.9l3.5-3.5l-6.9-6.9l1.7-1.7
		c1-1,1-2.5,0-3.5l-6.9-6.9c-3.8-3.8-9.7-4.6-14.5-2.1C10.7,103,6.3,89.2,6.4,75C6.4,37.1,37.1,6.4,75,6.4c8.9,0,17.8,1.7,26,5.1
		l1.9-4.6C94,3.3,84.6,1.5,75,1.5z M19.5,120.1c2.9-2.8,7.5-2.8,10.4,0l5.2,5.2l-10.4,10.4l-5.2-5.2C16.7,127.6,16.7,123,19.5,120.1
		z"/>
</g>
</svg>
