<?xml version="1.0" encoding="utf-8"?>
<!-- Generator: Adobe Illustrator 25.4.1, SVG Export Plug-In . SVG Version: 6.00 Build 0)  -->
<svg version="1.1" id="Layer_1" xmlns="http://www.w3.org/2000/svg" xmlns:xlink="http://www.w3.org/1999/xlink" x="0px" y="0px"
	 viewBox="0 0 150 150" style="enable-background:new 0 0 150 150;" xml:space="preserve">
<style type="text/css">
	.st0{fill:#FFFFFF;}
</style>
<g>
	<path class="st0" d="M81.3,47.1c1.3,0,2.3-1,2.3-2.3V24.5c0-1.3-1-2.3-2.3-2.3s-2.3,1-2.3,2.3v20.2C79,46,80,47.1,81.3,47.1z"/>
	<path class="st0" d="M14.4,67h15.1c1.3,0,2.3-1,2.3-2.3c0-1.3-1-2.3-2.3-2.3H14.4c-1.3,0-2.3,1-2.3,2.3C12.1,66,13.1,67,14.4,67z"
		/>
	<path class="st0" d="M64,67h7.4c1.3,0,2.3-1,2.3-2.3c0-1.3-1-2.3-2.3-2.3H64c-1.3,0-2.3,1-2.3,2.3C61.7,66,62.8,67,64,67z"/>
	<path class="st0" d="M48.6,67H56c1.3,0,2.3-1,2.3-2.3c0-1.3-1-2.3-2.3-2.3h-7.4c-1.3,0-2.3,1-2.3,2.3C46.3,66,47.4,67,48.6,67z"/>
	<path class="st0" d="M33.8,109.3c-0.9,0.9-0.9,2.3,0,3.2c0.4,0.4,1,0.7,1.6,0.7c0.6,0,1.2-0.2,1.6-0.7l9.1-9.1
		c0.9-0.9,0.9-2.3,0-3.2c-0.9-0.9-2.3-0.9-3.2,0L33.8,109.3z"/>
	<path class="st0" d="M90,95.2c-0.9-0.9-2.3-0.9-3.2,0l-17.5,17.5c-0.9,0.9-0.9,2.3,0,3.2c0.4,0.4,1,0.7,1.6,0.7s1.2-0.2,1.6-0.7
		L90,98.4C90.9,97.5,90.9,96.1,90,95.2z"/>
	<path class="st0" d="M94.2,101.5l-9.1,9.1c-0.9,0.9-0.9,2.3,0,3.2c0.4,0.4,1,0.7,1.6,0.7c0.6,0,1.2-0.2,1.6-0.7l9.1-9.1
		c0.9-0.9,0.9-2.3,0-3.2C96.5,100.6,95.1,100.6,94.2,101.5z"/>
	<path class="st0" d="M140.9,2.3H73.6c-3.8,0-6.8,3.1-6.8,6.8v42.8H9.1c-3.8,0-6.8,3.1-6.8,6.8v82.1c0,3.8,3.1,6.8,6.8,6.8h64.4h0.3
		h2.9h1.1h16.4h3.9h42.8c3.8,0,6.8-3.1,6.8-6.8V9.1C147.7,5.4,144.6,2.3,140.9,2.3z M71.3,9.1c0-1.3,1-2.3,2.3-2.3h67.3
		c1.3,0,2.3,1,2.3,2.3v47.3h-60c-0.9-2.7-3.5-4.6-6.5-4.6h-5.4V9.1z M91.9,143.2H80.7h-0.6v-5.6h11.8V143.2z M94.2,133H77.8H54.2
		c-0.6,0-1.1-0.5-1.1-1.1v-3.6h65.9v3.6c0,0.6-0.5,1.1-1.1,1.1H94.2z M42.9,131.2c-12,0-21.8-9.8-21.8-21.8s9.8-21.8,21.8-21.8
		c2.1,0,4.1,0.3,6,0.8c-0.3,0.7-0.4,1.4-0.4,2.2v1.3c-1.8-0.6-3.6-0.9-5.6-0.9c-10.1,0-18.4,8.3-18.4,18.4s8.3,18.4,18.4,18.4
		c1.9,0,3.8-0.3,5.6-0.9v3.6C46.7,130.9,44.8,131.2,42.9,131.2z M48.5,106.3c-0.3,0.1-0.6,0.3-0.9,0.6l-3.6,3.6
		c-0.9,0.9-0.9,2.3,0,3.2c0.4,0.4,1,0.7,1.6,0.7s1.2-0.2,1.6-0.7l1.2-1.2v9.6c-1.7,0.8-3.6,1.2-5.6,1.2c-7.6,0-13.8-6.2-13.8-13.8
		c0-7.6,6.2-13.8,13.8-13.8c2,0,3.9,0.4,5.6,1.2V106.3z M118.9,123.8H53V90.5c0-0.6,0.5-1.1,1.1-1.1h63.6c0.6,0,1.1,0.5,1.1,1.1
		V123.8z M9.1,56.5h67.6c1.3,0,2.3,1,2.3,2.3v13.1H6.8V58.7C6.8,57.5,7.9,56.5,9.1,56.5z M6.8,140.9V76.4H79v8.4H54.2
		c-0.4,0-0.8,0-1.2,0.1c-3.1-1.3-6.5-2-10-2c-14.5,0-26.4,11.8-26.4,26.4s11.8,26.4,26.4,26.4c2.2,0,4.4-0.3,6.5-0.8
		c1,1.6,2.8,2.7,4.8,2.7h21.3v5.6h-1.6H9.1C7.9,143.2,6.8,142.1,6.8,140.9z M140.9,143.2H98.1h-1.6v-5.6h21.3c3.1,0,5.7-2.6,5.7-5.7
		V90.5c0-3.1-2.6-5.7-5.7-5.7H83.6V61h59.6v79.8C143.2,142.1,142.1,143.2,140.9,143.2z"/>
</g>
</svg>
