<?xml version="1.0" encoding="utf-8"?>
<!-- Generator: Adobe Illustrator 25.4.1, SVG Export Plug-In . SVG Version: 6.00 Build 0)  -->
<svg version="1.1" id="Layer_2_00000097501633278752782530000000077829687578922131_"
	 xmlns="http://www.w3.org/2000/svg" xmlns:xlink="http://www.w3.org/1999/xlink" x="0px" y="0px" viewBox="0 0 164 164"
	 style="enable-background:new 0 0 164 164;" xml:space="preserve">
<style type="text/css">
	.st0{fill:#00102C;}
</style>
<g>
	<g>
		<path class="st0" d="M76.3,127c-0.5,0-1-0.1-1.5-0.3c-0.9-0.4-1.6-1.2-1.9-2.1c-2.5-7.6-7-14.8-12.8-20.6
			c-5.8-5.8-13-10.3-20.6-12.8c-0.9-0.3-1.7-1-2.1-1.9c-0.4-0.9-0.4-1.9-0.1-2.8c6.6-16.1,14.6-30.1,23.8-41.7
			C83.7,16.4,114.6,2.1,152.8,2h0c2.5,0,4.8,1,6.5,2.7c1.7,1.7,2.7,4.1,2.7,6.5c0,38.2-14.4,69-42.7,91.7c0,0,0,0,0,0
			c-11.5,9.2-25.6,17.2-41.7,23.8C77.2,126.9,76.7,127,76.3,127z M45.3,85.7c7.3,3,14.1,7.5,19.8,13.2c5.7,5.7,10.2,12.5,13.2,19.8
			c14-6,26.3-13.2,36.5-21.3c26.5-21.3,40-50.2,40-86.1c0-0.6-0.2-1.1-0.6-1.5c-0.4-0.4-0.9-0.6-1.5-0.6c0,0,0,0,0,0
			c-35.9,0-64.9,13.5-86.1,40C58.5,59.4,51.3,71.6,45.3,85.7z M117.1,100.1L117.1,100.1L117.1,100.1z"/>
	</g>
	<g>
		<path class="st0" d="M40.6,91.3c-0.4,0-0.8-0.1-1.1-0.2c-7.6-2.6-15.7-3.3-23.5-2.1c-3.3,0.5-6.5-0.8-8.5-3.5
			c-2-2.7-2.5-6.2-1.1-9.3c11.8-26.6,31.4-37.7,58.2-32.8c1.2,0.2,2.3,1.1,2.7,2.3c0.4,1.2,0.2,2.5-0.6,3.5
			c-8.8,11-16.5,24.4-22.8,39.9C43.3,90.4,42,91.3,40.6,91.3z M23.2,81.3c5.1,0,10.3,0.7,15.3,2.1c5.4-12.7,11.7-24,18.8-33.7
			c-20.6-1.9-34.9,7.6-44.5,29.4c-0.4,1,0,1.8,0.3,2.1c0.3,0.3,0.8,0.9,1.8,0.8C17.6,81.5,20.4,81.3,23.2,81.3z"/>
	</g>
	<g>
		<path class="st0" d="M84.1,158.5c-2,0-4-0.6-5.6-1.9c-2.7-2-4-5.2-3.5-8.5c1.2-7.8,0.4-15.9-2.1-23.5c-0.6-1.8,0.3-3.7,2-4.5
			c15.5-6.3,28.9-14,39.9-22.8c1-0.8,2.3-1,3.5-0.6c1.2,0.4,2,1.5,2.3,2.7c4.9,26.9-6.1,46.4-32.8,58.2
			C86.6,158.2,85.4,158.5,84.1,158.5z M82.1,149.1c-0.1,0.9,0.4,1.5,0.7,1.8c0.2,0.2,1.1,0.7,2.1,0.3c21.9-9.7,31.3-23.9,29.4-44.5
			c-9.8,7.1-21.1,13.4-33.7,18.8C82.8,133.2,83.3,141.3,82.1,149.1z"/>
	</g>
	<g>
		<path class="st0" d="M112,71.3c-4.9,0-9.9-1.9-13.7-5.7c-7.5-7.5-7.5-19.8,0-27.3c7.5-7.5,19.8-7.5,27.3,0
			c7.5,7.5,7.5,19.8,0,27.3h0C121.9,69.4,117,71.3,112,71.3z M112,39.8c-3.1,0-6.2,1.2-8.6,3.6c-4.8,4.8-4.8,12.5,0,17.2
			c4.8,4.8,12.5,4.8,17.2,0c4.8-4.8,4.8-12.5,0-17.2C118.3,41,115.1,39.8,112,39.8z M123.2,63.1L123.2,63.1L123.2,63.1z"/>
	</g>
	<g>
		<path class="st0" d="M5.6,162c-0.9,0-1.8-0.4-2.5-1c-0.9-0.9-1.2-2.2-0.9-3.4c1.3-5.2,8.2-31.5,14.8-38.1
			c3.7-3.7,8.6-5.7,13.8-5.7c5.2,0,10.1,2,13.8,5.7c7.6,7.6,7.6,20,0,27.6c0,0,0,0,0,0c-6.6,6.6-32.9,13.5-38.1,14.8
			C6.1,162,5.9,162,5.6,162z M30.7,120.9c-3.3,0-6.4,1.3-8.8,3.6c-3.4,3.4-8.2,17.7-11.3,28.9c11.2-3.1,25.5-7.9,28.9-11.3
			c4.8-4.8,4.8-12.7,0-17.5C37.1,122.2,34,120.9,30.7,120.9z M42,144.6L42,144.6L42,144.6z"/>
	</g>
</g>
</svg>
