<?xml version="1.0" encoding="utf-8"?>
<!-- Generator: Adobe Illustrator 25.4.1, SVG Export Plug-In . SVG Version: 6.00 Build 0)  -->
<svg version="1.1" id="Layer_1" xmlns="http://www.w3.org/2000/svg" xmlns:xlink="http://www.w3.org/1999/xlink" x="0px" y="0px"
	 viewBox="0 0 170 170" style="enable-background:new 0 0 170 170;" xml:space="preserve">
<style type="text/css">
	.st0{fill:#FFFFFF;}
</style>
<path class="st0" d="M47,119.2H33.2c-1.9,0-3.5-1.5-3.5-3.5s1.5-3.5,3.5-3.5H47c1.9,0,3.5,1.5,3.5,3.5S48.9,119.2,47,119.2z"/>
<path class="st0" d="M159.2,119.2h-8.6c-1.9,0-3.5-1.5-3.5-3.5s1.5-3.5,3.5-3.5h5.8l4.7-24.8C161,74.8,150.1,64,136.8,64h-22.7
	l-11,48.3H123c1.9,0,3.5,1.5,3.5,3.5s-1.5,3.5-3.5,3.5H98.8c-1,0-2-0.5-2.7-1.3c-0.7-0.8-0.9-1.9-0.7-2.9L108,59.7
	c0.4-1.6,1.8-2.7,3.4-2.7h25.4c17.1,0,31.1,13.9,31.1,31.1l-5.2,28.3C162.3,118,160.9,119.2,159.2,119.2z"/>
<path class="st0" d="M136.8,133c-9.5,0-17.3-7.7-17.3-17.3s7.7-17.3,17.3-17.3c9.5,0,17.3,7.7,17.3,17.3S146.3,133,136.8,133z
	 M136.8,105.4c-5.7,0-10.4,4.6-10.4,10.4s4.6,10.4,10.4,10.4c5.7,0,10.4-4.6,10.4-10.4S142.5,105.4,136.8,105.4z"/>
<path class="st0" d="M60.8,133c-9.5,0-17.3-7.7-17.3-17.3s7.7-17.3,17.3-17.3s17.3,7.7,17.3,17.3S70.3,133,60.8,133z M60.8,105.4
	c-5.7,0-10.4,4.6-10.4,10.4s4.6,10.4,10.4,10.4s10.4-4.6,10.4-10.4S66.5,105.4,60.8,105.4z"/>
<path class="st0" d="M47,57H19.4c-1.9,0-3.5-1.5-3.5-3.5c0-1.9,1.5-3.5,3.5-3.5H47c1.9,0,3.5,1.5,3.5,3.5C50.5,55.5,48.9,57,47,57z"
	/>
<path class="st0" d="M47,77.8H12.5c-1.9,0-3.5-1.5-3.5-3.5c0-1.9,1.5-3.5,3.5-3.5H47c1.9,0,3.5,1.5,3.5,3.5
	C50.5,76.2,48.9,77.8,47,77.8z"/>
<path class="st0" d="M47,98.5H5.6c-1.9,0-3.5-1.5-3.5-3.5c0-1.9,1.5-3.5,3.5-3.5H47c1.9,0,3.5,1.5,3.5,3.5
	C50.5,96.9,48.9,98.5,47,98.5z"/>
<path class="st0" d="M98.8,119.2H74.6c-1.9,0-3.5-1.5-3.5-3.5s1.5-3.5,3.5-3.5h21.4l15.7-69H33.2c-1.9,0-3.5-1.5-3.5-3.5
	c0-1.9,1.5-3.5,3.5-3.5h82.9c1,0,2,0.5,2.7,1.3c0.7,0.8,0.9,1.9,0.7,2.9l-17.3,76C101.8,118.1,100.4,119.2,98.8,119.2L98.8,119.2z"
	/>
</svg>
