<?xml version="1.0" encoding="utf-8"?>
<!-- Generator: Adobe Illustrator 25.4.1, SVG Export Plug-In . SVG Version: 6.00 Build 0)  -->
<svg version="1.1" id="Layer_1" xmlns="http://www.w3.org/2000/svg" xmlns:xlink="http://www.w3.org/1999/xlink" x="0px" y="0px"
	 viewBox="0 0 170.8 170.8" style="enable-background:new 0 0 170.8 170.8;" xml:space="preserve">
<style type="text/css">
	.st0{fill:#FFFFFF;}
</style>
<g>
	<g>
		<path class="st0" d="M73.2,53.7c-1.5-4.2-2.9-8.3-2.5-11.6c0.1-1.5-0.5-3.1-1.6-4.1c-1.3-1-2.9-1.4-4.3-0.9
			c-1.1,0.3-22.7,6.3-28.2,24.7c-2.5,8.3-1,16.9,3.9,23.6c2.4,3.3,5.6,5.8,8.7,7.2h0.1h0.1l5.8,1l0.3,0.1h0.2c0.6,0,1.1,0,1.7-0.1
			c0.8,0,1.9-0.2,3.3-0.6c4.8-1.1,12.3-4.5,15.1-14.5C78.5,69,75.7,60.9,73.2,53.7z M72.1,77.6c-2.7,10.3-11.4,12-15.1,12.2
			c-0.5,0-0.8,0-1.3,0l-1.7-0.3l-3.7-0.7c-0.7-0.3-1.5-0.7-2.2-1.3c-1.7-1.1-3.3-2.7-4.8-4.6c-4.2-5.7-5.5-13.1-3.3-20.3
			c4.9-16.4,25.3-22,25.6-22.1l0,0c0.3-0.1,0.7,0.1,0.8,0.2c0.2,0.2,0.3,0.5,0.3,0.8c-0.5,4.2,1.1,8.8,2.7,13.4
			C71.9,61.5,74.5,69.1,72.1,77.6z"/>
	</g>
	<g>
		<path class="st0" d="M146.9,36c-3.8-3.2-7.8-5.9-12-8.1l-1.9,5.2c3.7,1.9,7.1,4.2,10.3,7c19.2,16.5,23.9,43.7,12.9,65.4
			c-1.4,2.6-2.9,5.1-4.7,7.6c-0.9,1.1-1.8,2.3-2.7,3.4c-0.5,0.6-1,1.1-1.5,1.7c-2.2,2.3-4.6,4.5-7.1,6.3
			c-18.9,14.2-45.4,14.5-64.8,0c-1-0.8-2.1-1.6-3.1-2.4c-1-0.9-1.9-1.8-2.9-2.7l0,0c-0.1-0.1-0.2-0.2-0.3-0.3l0,0c0,0,0,0-0.1-0.1
			l0,0c-0.1-0.1-0.3-0.3-0.5-0.5c-6.6-7.1-11.2-15.6-13.2-24.8c-0.2-1.1-0.5-2.2-0.7-3.3c-0.7,0-1.4,0-1.8-0.1
			c-1.3,0-2.5-0.3-3.9-0.9c0.1,1.1,0.3,2.2,0.6,3.3c0.5,2.2,0.9,4.3,1.6,6.4l0,0c-1.4-0.8-2.7-1.5-4.1-2.2l0,0
			c-0.3-2.3-1.5-4.9-3.2-7.1c-3.7-4.9-9.5-7.8-16-7.8C13.2,82,4.1,96.4,3.8,97c-0.5,0.8-0.6,1.7-0.2,2.6c0.3,0.8,1.1,1.5,2.1,1.6
			c2.7,0.5,5.4,2.4,8.4,4.6c4.7,3.3,9.9,7.1,17.3,7.3c0.6,0,1.1,0,1.7,0c7.6-0.6,11.4-6,12.9-10.3c3.2,1.6,6.2,3.7,8.9,6.2
			c2.6,5.1,6,9.8,10.2,14c0.1,0.1,0.2,0.2,0.2,0.2l0.1,0.1l0,0l0,0c1,1,2.1,2.1,3.2,3c12.4,10.7,28.1,15.5,43.4,14.4
			c13.4-0.9,26.5-6.4,36.7-16.1c1.5-1.4,2.9-2.9,4.1-4.3c0.7-0.8,1.3-1.5,1.8-2.3C174.3,93,171,56.9,146.9,36z M31.6,107.5
			c-5.7-0.1-10-3.3-14.3-6.3c-2.2-1.6-4.3-3.1-6.6-4.2c3.1-3.7,9.1-9.6,16.9-9.6c6.4,0,9.9,3.4,11.5,5.5c0.3,0.5,0.6,0.9,0.9,1.3
			c-7.3-1.9-14.8-2.3-22.3-0.7c-1.5,0.3-2.5,1.8-2.2,3.3s1.8,2.5,3.3,2.2c7.4-1.5,15.1-0.9,22,1.6C40.2,102.7,38,107.6,31.6,107.5z"
			/>
	</g>
	<g>
		<path class="st0" d="M48.7,89.3c0,0-7.4-24.7,8.7-33.9c0,0-10.5,19.2-2.9,34.9L48.7,89.3z"/>
	</g>
	<g>
		<path class="st0" d="M127.6,105.6c2.2,0,3.9-1.8,3.9-3.9s-1.8-3.9-3.9-3.9c-2.1,0-3.9,1.8-3.9,3.9S125.4,105.6,127.6,105.6
			L127.6,105.6z"/>
		<path class="st0" d="M152.5,81.2h-27.4c-2.2-1-4.3-1.7-6.7-2.1c2.6-1.7,4.6-3.8,6.3-6.3c0.6-0.8,1-1.6,1.4-2.4
			c4.8-9.8,1.6-21.8-7.6-28c-10.2-6.7-24-3.9-30.6,6.2c-5.5,8.4-4.5,19.4,1.9,26.6C91,76.7,92.4,78,94,79
			c-11.6,1.8-20.3,11.9-20.3,23.7v15.6h-2.2c-1,0-2.1,0-3.1,0.1c-0.5,0-0.8,0.1-1.3,0.2c0.2,1.9,0.7,3.9,1.3,5.7
			c1,0.1,2.2,0.2,3.2,0.2h77.1c1.5-1.4,2.9-2.9,4.1-4.3c0.7-0.8,1.3-1.5,1.8-2.3c0.1-0.3,0.2-0.8,0.3-1.3l1-11.2l0.9-10.4l0.7-8.1
			C158.2,83.8,155.6,81.2,152.5,81.2z M93.4,73.4c-3.2-3.3-5.1-7.8-5.1-12.7c0-10,8.1-17.9,18-17.9c10,0,17.9,8.1,17.9,18
			c0,3.2-0.8,6.2-2.3,8.8c-3.1,5.5-9,9.1-15.6,9.1c-0.1,0-0.1,0-0.1,0C101.1,78.8,96.6,76.7,93.4,73.4z M97.6,118.1h-5.9
			c-1.4,0-2.6-1-2.9-2.4l-0.2-1.6h9.4L97.6,118.1z M98.4,110.2H86.2c-1.1,0-2.2,1-1.9,2.3l0.7,3.9c0.1,0.7,0.3,1.3,0.6,1.8h-7.9
			v-15.4c0.1-11,9-20,20.1-20.1h4.5c-0.8,0.8-1.5,2.1-1.6,3.4L98.4,110.2z M151.2,116.3c-0.1,1.1-1.1,2.1-2.3,2.1h-47.2l3-31.8
			c0.1-0.8,0.7-1.4,1.5-1.4h46.3c0.7,0,1.6,0.7,1.5,1.6l-0.2,2.6l-2.2,24L151.2,116.3z"/>
	</g>
</g>
</svg>
