<?xml version="1.0" encoding="utf-8"?>
<!-- Generator: Adobe Illustrator 25.4.1, SVG Export Plug-In . SVG Version: 6.00 Build 0)  -->
<svg version="1.1" id="Capa_1" xmlns="http://www.w3.org/2000/svg" xmlns:xlink="http://www.w3.org/1999/xlink" x="0px" y="0px"
	 viewBox="0 0 150.6 150.6" style="enable-background:new 0 0 150.6 150.6;" xml:space="preserve">
<style type="text/css">
	.st0{fill:#FFFFFF;}
</style>
<g>
	<g>
		<path class="st0" d="M75.3,27.4c-8.1,1.1-15.1,9.5-19.1,21.5c5.7,1.7,12.2,2.8,19.1,2.9V27.4z"/>
		<path class="st0" d="M75.3,116V91.6c-6.9,0.2-13.4,1.2-19.1,2.9C60.1,106.5,67.2,114.9,75.3,116z"/>
		<path class="st0" d="M75.3,75.3H52.8c0.2,5.5,1,10.7,2.3,15.5c6.1-1.9,13-3,20.2-3.2L75.3,75.3L75.3,75.3z"/>
		<path class="st0" d="M75.3,55.8c-7.3-0.2-14.1-1.3-20.2-3.2c-1.5,5.7-2.4,12-2.4,18.6h22.6L75.3,55.8L75.3,55.8z"/>
		<path class="st0" d="M63.2,29.6c-7.8,2.6-14.6,7.4-19.8,13.6c2.6,1.7,5.7,3.3,9.1,4.5C55,40.2,58.7,33.9,63.2,29.6z"/>
		<path class="st0" d="M51.4,51.4c-3.8-1.4-7.3-3.2-10.3-5.2c-5,7.1-8,15.8-8.1,25.1h15.8C48.8,64.2,49.7,57.5,51.4,51.4z"/>
		<path class="st0" d="M52.5,95.7c-3.4,1.3-6.5,2.8-9.1,4.5c5.2,6.2,12,10.9,19.8,13.6C58.7,109.5,55,103.3,52.5,95.7z"/>
		<path class="st0" d="M113.5,46.2c-3.1,2-6.6,3.8-10.5,5.3c1.6,6,2.6,12.8,2.6,19.8h16C121.5,62,118.5,53.3,113.5,46.2z"/>
		<path class="st0" d="M48.8,75.3H33.1c0.6,8.1,3.5,15.6,7.9,22c3-2,6.5-3.8,10.3-5.2C50,86.9,49.1,81.2,48.8,75.3z"/>
		<path class="st0" d="M121.4,75.3h-15.9c-0.3,5.9-1.1,11.5-2.5,16.7c3.9,1.5,7.5,3.3,10.5,5.3C117.9,90.9,120.8,83.4,121.4,75.3z"
			/>
		<path class="st0" d="M79.2,87.6c7.2,0.2,14,1.3,20,3.1c1.2-4.7,2-9.9,2.3-15.4H79.2L79.2,87.6L79.2,87.6z"/>
		<path class="st0" d="M79.2,116c8-1.2,15-9.6,18.9-21.5c-5.7-1.7-12.1-2.7-18.9-2.9V116z"/>
		<path class="st0" d="M111.1,100.3c-2.7-1.8-5.8-3.3-9.3-4.6c-2.6,7.6-6.3,14-10.8,18.3C98.9,111.3,105.9,106.5,111.1,100.3z"/>
		<path class="st0" d="M111.1,43.2c-5.3-6.3-12.2-11.1-20.1-13.7c4.5,4.3,8.2,10.7,10.8,18.3C105.3,46.5,108.4,44.9,111.1,43.2z"/>
		<path class="st0" d="M79.2,27.4v24.4c6.8-0.2,13.2-1.2,18.9-2.9C94.2,37,87.3,28.7,79.2,27.4z"/>
		<path class="st0" d="M79.2,71.3h22.4c0-6.6-0.9-12.9-2.4-18.6c-6,1.8-12.8,2.9-20,3.1V71.3z"/>
		<path class="st0" d="M77.1,10.6c18.9,0,35.7,8.8,46.7,22.4l-7.2,5.1l22.8,7.8l-2.4-22.2l-6.4,4.5C118,12.4,98.7,2.3,77.1,2.3
			c-10.7,0-20.8,2.5-29.8,6.8l2.6,8C58.1,12.9,67.3,10.6,77.1,10.6z"/>
		<path class="st0" d="M136.6,86c-2.1,8.9-6.2,17.5-12.5,24.9c-12.2,14.4-29.7,21.6-47.3,21.3l0.8-8.8L57,135.8l18.5,12.5l0.7-7.8
			c20.1,0.6,40.4-7.6,54.3-24.2c6.9-8.2,11.5-17.5,14-27.2L136.6,86z"/>
		<path class="st0" d="M18.9,95.1c-7.2-17.5-5.5-36.4,3-51.7l7.5,4.8l-1.5-24L8.3,34.7l6.6,4.2C5.1,56.4,3,78.2,11.2,98.2
			c4.1,9.9,10.2,18.3,17.6,25l6.4-5.5C28.3,111.7,22.6,104.1,18.9,95.1z"/>
	</g>
</g>
</svg>
