<?xml version="1.0" encoding="utf-8"?>
<!-- Generator: Adobe Illustrator 25.4.1, SVG Export Plug-In . SVG Version: 6.00 Build 0)  -->
<svg version="1.1" id="Layer_1" xmlns="http://www.w3.org/2000/svg" xmlns:xlink="http://www.w3.org/1999/xlink" x="0px" y="0px"
	 viewBox="0 0 170.1 170.3" style="enable-background:new 0 0 170.1 170.3;" xml:space="preserve">
<style type="text/css">
	.st0{fill:#FFFFFF;}
</style>
<g id="Layer_2_00000179615534268653383940000008873674303104376997_">
	<g id="Icon">
		<path class="st0" d="M30.2,26.6c32.1-32.1,84.2-32.1,116.3,0l1.6,1.7l12-12v34.2h-34.2l12.5-12.4l-1.7-1.7
			C110,9.7,66.7,9.7,40,36.4c-26.7,26.7-26.7,70,0,96.7s70,26.7,96.7,0l9.7,9.7c-32.2,32-84.1,32-116.3,0
			C-1.9,110.8-1.9,58.7,30.2,26.6z"/>
		<path class="st0" d="M59.5,95v5.7H38.1c0.2-2.2,1-4.3,2.1-6.1c1.9-2.8,4.2-5.4,6.8-7.7c2.9-2.7,6.4-5.4,6.4-9
			c0.2-2.1-1.3-4-3.4-4.2c-0.2,0-0.5,0-0.7,0c-3,0-4.2,2-4.4,5l-5.9-0.6c0-5.3,4.3-9.6,9.6-9.5c0.3,0,0.7,0,1,0.1
			c5-0.7,9.5,2.8,10.2,7.8c0,0.4,0.1,0.7,0.1,1.1c0,5.2-3.4,8.8-7.2,12.3c-2,1.5-3.7,3.2-5.2,5.2L59.5,95z"/>
		<path class="st0" d="M75.7,100.8v-6.4H62.6V89l13.7-20.3h5.2V89h4v5.4h-3.8v6.4H75.7z M75.7,89v-11l-7.4,10.9L75.7,89z"/>
		<path class="st0" d="M86.3,100.3l7.6-31.7h4.4l-7.7,31.7H86.3z"/>
		<path class="st0" d="M100.9,74.9v-5.7h21v4.4c-4.5,5-7.7,11-9.4,17.5c-0.9,3.1-1.4,6.4-1.4,9.6h-5.9c0.1-4.6,1-9.2,2.7-13.5
			c1.6-4.4,3.9-8.6,6.8-12.3H100.9z"/>
	</g>
</g>
</svg>
