<?xml version="1.0" encoding="utf-8"?>
<!-- Generator: Adobe Illustrator 25.4.1, SVG Export Plug-In . SVG Version: 6.00 Build 0)  -->
<svg version="1.1" id="Layer_1" xmlns="http://www.w3.org/2000/svg" xmlns:xlink="http://www.w3.org/1999/xlink" x="0px" y="0px"
	 viewBox="0 0 164 164" style="enable-background:new 0 0 164 164;" xml:space="preserve">
<style type="text/css">
	.st0{fill:#00102C;}
</style>
<g id="Page-1">
	<g id="_x30_08---Certificate">
		<path id="Shape" class="st0" d="M148.8,12.5H15.2c-7.4,0-13.3,6-13.4,13.4v96.2c0,7.4,6,13.3,13.4,13.4h80.1v13.4
			c0,1.1,0.7,2.1,1.6,2.5c1,0.4,2.1,0.2,2.9-0.6l8.8-8.8l8.8,8.8c0.8,0.8,1.9,1,2.9,0.6c1-0.4,1.6-1.4,1.6-2.5v-13.4h26.7
			c7.4,0,13.3-6,13.4-13.4V25.9C162.1,18.5,156.2,12.6,148.8,12.5L148.8,12.5z M88.2,64.8c-0.4-0.2-0.7-0.6-0.8-1s0-0.9,0.3-1.2
			c2.4-2.6,2.4-6.6,0-9.2c-0.3-0.3-0.4-0.8-0.4-1.2c0.1-0.4,0.4-0.8,0.8-1c3.2-1.5,4.7-5.2,3.5-8.5c-0.2-0.4-0.1-0.9,0.2-1.3
			c0.3-0.4,0.7-0.6,1.1-0.6c3.5-0.1,6.4-3,6.5-6.5c0-0.5,0.3-0.9,0.6-1.1c0.4-0.3,0.9-0.3,1.3-0.1c3.3,1.2,7-0.3,8.5-3.5
			c0.2-0.4,0.6-0.7,1-0.8c0.4-0.1,0.9,0,1.2,0.4c2.6,2.4,6.6,2.4,9.2,0c0.3-0.3,0.8-0.4,1.2-0.4c0.4,0.1,0.8,0.4,1,0.8
			c1.5,3.2,5.2,4.7,8.5,3.5c0.4-0.2,0.9-0.1,1.3,0.1s0.6,0.7,0.6,1.1c0.1,3.5,3,6.4,6.5,6.5c0.5,0,0.9,0.3,1.1,0.6
			c0.3,0.4,0.3,0.9,0.2,1.3c-1.2,3.3,0.3,7,3.5,8.5c0.4,0.2,0.7,0.6,0.8,1c0.1,0.4,0,0.9-0.3,1.2c-2.4,2.6-2.4,6.6,0,9.2
			c0.3,0.3,0.4,0.8,0.4,1.2c-0.1,0.4-0.4,0.8-0.8,1c-3.2,1.5-4.7,5.2-3.5,8.5c0.2,0.4,0.1,0.9-0.2,1.3s-0.7,0.6-1.1,0.6
			c-3.5,0.1-6.4,3-6.5,6.5c0,0.5-0.3,0.9-0.6,1.1c-0.4,0.3-0.9,0.3-1.3,0.1c-3.3-1.2-7,0.3-8.5,3.5c-0.2,0.4-0.6,0.7-1,0.8
			c-0.4,0.1-0.9,0-1.2-0.3c-2.6-2.4-6.6-2.4-9.2,0c-0.3,0.3-0.8,0.4-1.2,0.3c-0.4-0.1-0.8-0.4-1-0.8c-1.5-3.2-5.2-4.7-8.5-3.5
			c-0.4,0.2-0.9,0.1-1.3-0.1c-0.4-0.3-0.6-0.7-0.6-1.1c-0.1-3.5-3-6.4-6.5-6.5c-0.5,0-0.9-0.3-1.1-0.6c-0.3-0.4-0.3-0.9-0.2-1.3
			C92.9,70,91.4,66.3,88.2,64.8L88.2,64.8z M117.5,114.8l-0.8,0.8V90.5c0.4,0,0.7,0.1,1,0.4c1.2,1.2,2.9,1.8,4.6,1.8
			c0.5,0,0.9,0,1.4-0.1c2.1-0.4,3.9-1.8,4.8-3.8c0.3-0.7,1.1-1,1.8-0.7c0.8,0.3,1.7,0.4,2.5,0.4v27.2l-6.1-6.1c-1-1-2.7-1-3.8,0
			L117.5,114.8z M116.7,142.3l-6.1-6.1c-1-1-2.7-1-3.8,0l-6.1,6.1V88.4c0.9,0,1.7-0.1,2.5-0.4c0.7-0.3,1.5,0.1,1.8,0.7
			c0.9,2,2.7,3.4,4.8,3.8c0.5,0.1,1,0.1,1.5,0.1v29.4c0,1.1,0.7,2.1,1.6,2.5c1,0.4,2.1,0.2,2.9-0.6l0.8-0.8L116.7,142.3z
			 M156.8,122.1c0,4.4-3.6,8-8,8h-26.7v-12.3l2.7-2.7l8.8,8.8c0.8,0.8,1.9,1,2.9,0.6c1-0.4,1.6-1.4,1.6-2.5V85.5
			c0.7-1,1.2-2.3,1.2-3.6c0-0.7,0.6-1.3,1.4-1.4c2.2-0.1,4.2-1.2,5.4-3c1.2-1.8,1.5-4.1,0.7-6.1c-0.3-0.7,0.1-1.5,0.7-1.8
			c2-0.9,3.4-2.7,3.8-4.8c0.4-2.1-0.2-4.3-1.7-5.9c-0.5-0.5-0.5-1.4,0-1.9c1.5-1.6,2.1-3.8,1.7-5.9c-0.4-2.1-1.8-3.9-3.8-4.8
			c-0.7-0.3-1-1.1-0.7-1.8c0.8-2,0.5-4.3-0.7-6.1c-1.2-1.8-3.2-2.9-5.4-3c-0.7,0-1.3-0.6-1.4-1.4c-0.1-2.2-1.2-4.2-3-5.4
			c-1.8-1.2-4.1-1.5-6.1-0.7c-0.7,0.3-1.5-0.1-1.8-0.7c-0.9-2-2.7-3.4-4.8-3.8c-2.1-0.4-4.3,0.2-5.9,1.7c-0.5,0.5-1.4,0.5-1.9,0
			c-1.6-1.5-3.8-2.1-5.9-1.7c-2.1,0.4-3.9,1.8-4.8,3.8c-0.3,0.7-1.1,1-1.8,0.7c-2-0.8-4.3-0.5-6.1,0.7s-2.9,3.2-3,5.4
			c0,0.7-0.6,1.3-1.4,1.4c-2.2,0.1-4.2,1.2-5.4,3c-1.2,1.8-1.5,4.1-0.7,6.1c0.3,0.7-0.1,1.5-0.7,1.8c-2,0.9-3.4,2.7-3.8,4.8
			s0.2,4.3,1.7,5.9c0.5,0.5,0.5,1.4,0,1.9c-1.5,1.6-2.1,3.8-1.7,5.9c0.4,2.1,1.8,3.9,3.8,4.8c0.7,0.3,1,1.1,0.7,1.8
			c-0.8,2-0.5,4.3,0.7,6.1c1.2,1.8,3.2,2.9,5.4,3c0.7,0,1.3,0.6,1.4,1.4c0.1,1.3,0.5,2.5,1.2,3.6v44.6H15.2c-4.4,0-8-3.6-8-8V25.9
			c0-4.4,3.6-8,8-8h133.6c4.4,0,8,3.6,8,8L156.8,122.1z"/>
		<path id="Shape_00000047029543237810442710000000744116906677553331_" class="st0" d="M31.2,108.7c-4.4,0-8-3.6-8-8V47.3
			c0-4.4,3.6-8,8-8h48.1c1.5,0,2.7-1.2,2.7-2.7s-1.2-2.7-2.7-2.7H31.2c-7.4,0-13.3,6-13.4,13.4v53.4c0,7.4,6,13.3,13.4,13.4H82
			c1.5,0,2.7-1.2,2.7-2.7c0-1.5-1.2-2.7-2.7-2.7H31.2z"/>
		<path id="Shape_00000077318571277537884030000010577586474417728934_" class="st0" d="M33.9,76.7h37.4c1.5,0,2.7-1.2,2.7-2.7
			s-1.2-2.7-2.7-2.7H33.9c-1.5,0-2.7,1.2-2.7,2.7S32.4,76.7,33.9,76.7z"/>
		<path id="Shape_00000025428957571072354740000007374939098486131377_" class="st0" d="M33.9,66h37.4c1.5,0,2.7-1.2,2.7-2.7
			c0-1.5-1.2-2.7-2.7-2.7H33.9c-1.5,0-2.7,1.2-2.7,2.7C31.2,64.8,32.4,66,33.9,66z"/>
		<path id="Shape_00000173871467609289456260000011585146778169719729_" class="st0" d="M33.9,55.3h37.4c1.5,0,2.7-1.2,2.7-2.7
			s-1.2-2.7-2.7-2.7H33.9c-1.5,0-2.7,1.2-2.7,2.7S32.4,55.3,33.9,55.3z"/>
		<path id="Shape_00000150801739036768155330000004197119556977301690_" class="st0" d="M31.5,101.8c0.4,1,1.4,1.6,2.4,1.6
			c0.4,0,0.7-0.1,1.1-0.2c2.5-0.9,4.7-2.3,6.7-4.1c0.7-0.7,1.4-1.5,1.9-2.4c1,1.1,2.2,2.1,3.6,2.9c1.9,1.2,4.2,1.5,6.3,0.8
			c0.8-0.3,1.5-0.8,2.1-1.4c1.2,0.8,2.5,1.3,3.9,1.6l2,0.5c4.1,1.2,8.4,1.8,12.7,1.7c1-0.1,1.8-0.6,2.2-1.5c0.4-0.9,0.3-1.9-0.2-2.7
			c-0.5-0.8-1.5-1.2-2.4-1.2c-3.7,0-7.5-0.5-11.1-1.5l-2.1-0.5c-2.5-0.6-3.1-1.6-3.4-2.3c-0.5-1.2-1.8-2-3.1-1.7
			c-1.3,0.3-2.2,1.5-2.1,2.8c0,0.5-0.2,0.9-0.6,1.2c-0.6,0.1-1.3-0.1-1.8-0.5c-2.2-1.3-3.8-3.4-4.6-5.8c-0.5-1.2-1.8-2-3.1-1.7
			c-1.3,0.3-2.2,1.5-2.1,2.8c0,1.9-0.7,3.8-2.1,5.1c-1.5,1.3-3.2,2.3-5,3c-0.6,0.3-1.2,0.8-1.4,1.5
			C31.2,100.4,31.2,101.1,31.5,101.8L31.5,101.8z"/>
		<path id="Shape_00000075156469154470172840000013909727112351751819_" class="st0" d="M116.7,79.3c11.8,0,21.4-9.6,21.4-21.4
			s-9.6-21.4-21.4-21.4S95.4,46.2,95.4,58C95.4,69.8,104.9,79.3,116.7,79.3z M116.7,41.9c8.9,0,16,7.2,16,16s-7.2,16-16,16
			s-16-7.2-16-16C100.7,49.1,107.9,41.9,116.7,41.9z"/>
	</g>
</g>
</svg>
