<?xml version="1.0" encoding="utf-8"?>
<!-- Generator: Adobe Illustrator 25.4.1, SVG Export Plug-In . SVG Version: 6.00 Build 0)  -->
<svg version="1.1" id="Layer_1" xmlns="http://www.w3.org/2000/svg" xmlns:xlink="http://www.w3.org/1999/xlink" x="0px" y="0px"
	 viewBox="0 0 396 396" style="enable-background:new 0 0 396 396;" xml:space="preserve">
<style type="text/css">
	.st0{fill:#FFFFFF;}
</style>
<g id="Burger_Menu">
	<path class="st0" d="M366,110H30C16.4,110,6,99.6,6,86s10.4-24,24-24h336c13.6,0,24,10.4,24,24S379.6,110,366,110z"/>
	<path class="st0" d="M366,222H30c-13.6,0-24-10.4-24-24s10.4-24,24-24h336c13.6,0,24,10.4,24,24S379.6,222,366,222z"/>
	<path class="st0" d="M366,334H30c-13.6,0-24-10.4-24-24s10.4-24,24-24h336c13.6,0,24,10.4,24,24S379.6,334,366,334z"/>
</g>
</svg>
