<?xml version="1.0" encoding="utf-8"?>
<!-- Generator: Adobe Illustrator 25.4.1, SVG Export Plug-In . SVG Version: 6.00 Build 0)  -->
<svg version="1.1" id="Icon" xmlns="http://www.w3.org/2000/svg" xmlns:xlink="http://www.w3.org/1999/xlink" x="0px" y="0px"
	 viewBox="0 0 164 164" style="enable-background:new 0 0 164 164;" xml:space="preserve">
<style type="text/css">
	.st0{fill:#00102C;}
</style>
<path class="st0" d="M16.5,89.2c0.4,3.7-2.3,7.1-6,7.5c-0.3,0-0.5,0-0.8,0c-3.4,0-6.4-2.6-6.8-6.1c-2.7-24.1,5.6-47.8,22.8-65
	C55.1-3.7,101.8-5.2,133.1,21v-9.8c0-3.8,3.1-6.8,6.8-6.8s6.8,3.1,6.8,6.8v25.7c0,3.8-3.1,6.8-6.8,6.8h-25.7c-3.8,0-6.8-3.1-6.8-6.8
	c0-3.8,3.1-6.8,6.8-6.8h8.5C96.8,9.8,59.2,11.5,35.4,35.3C21.1,49.6,14.2,69.2,16.5,89.2L16.5,89.2z M161.1,73.2
	c-0.4-3.7-3.8-6.4-7.5-6c-3.7,0.4-6.4,3.8-6,7.5c2.2,20-4.6,39.6-18.9,53.9c-23.8,23.8-61.5,25.5-87.3,5.2h8.5
	c3.8,0,6.8-3.1,6.8-6.8s-3.1-6.8-6.8-6.8H24.1c-3.8,0-6.8,3.1-6.8,6.8v25.7c0,3.8,3.1,6.8,6.8,6.8s6.8-3.1,6.8-6.8V143
	c14.7,12.3,32.9,18.6,51.1,18.6c20.4,0,40.8-7.8,56.3-23.3C155.5,121.1,163.8,97.4,161.1,73.2L161.1,73.2z"/>
</svg>
