<?xml version="1.0" encoding="utf-8"?>
<!-- Generator: Adobe Illustrator 25.4.1, SVG Export Plug-In . SVG Version: 6.00 Build 0)  -->
<svg version="1.1" id="Layer_1" xmlns="http://www.w3.org/2000/svg" xmlns:xlink="http://www.w3.org/1999/xlink" x="0px" y="0px"
	 viewBox="0 0 164 164" style="enable-background:new 0 0 164 164;" xml:space="preserve">
<style type="text/css">
	.st0{fill:#00102C;}
</style>
<g>
	<path class="st0" d="M111.6,80.6c-16.8,0-30.4-13.6-30.3-30.3c0-16.8,13.6-30.4,30.3-30.4c16.8,0,30.4,13.6,30.4,30.4
		C141.7,67,128.1,80.6,111.6,80.6L111.6,80.6z M111.6,27.1c-12.8,0-23.2,10.4-23.2,23.2s10.4,23.2,23.2,23.2
		c12.6,0,23-10.4,23.2-23.2C134.8,37.5,124.4,27.1,111.6,27.1L111.6,27.1z"/>
</g>
<g>
	<path class="st0" d="M60.9,140.4V127c0-0.7,0.1-1.4,0.1-2.2c0-0.6,0.1-1.1,0.1-1.6v-0.3c0.8-10.7,4.8-20.5,11.5-28.3
		c1.1-1.4,2.2-2.5,3.1-3.4c9.6-9.6,22.3-14.9,35.8-14.9c27.8,0,50.4,22.7,50.4,50.7v13.4c0,2-1.6,3.6-3.6,3.6H64.5
		C62.5,144,60.9,142.4,60.9,140.4z M154.9,127c0-24-19.4-43.5-43.3-43.5c-11.5,0-22.4,4.6-30.7,12.8c-0.8,0.8-1.8,1.8-2.7,2.9
		c-5.8,6.7-9.2,15-9.9,24.1c0,0.7-0.1,1.4-0.1,2.1c0,0.6-0.1,1.1-0.1,1.6v9.8h86.8V127z"/>
</g>
<g>
	<path class="st0" d="M42.2,76.8c-13.6,0-24.6-11-24.6-24.6s11-24.6,24.6-24.6s24.6,11,24.6,24.6S55.8,76.8,42.2,76.8L42.2,76.8z
		 M24.8,52.2c0,9.6,7.8,17.5,17.5,17.5s17.5-7.8,17.5-17.5s-7.8-17.5-17.5-17.5C32.6,34.7,24.8,42.5,24.8,52.2z"/>
</g>
<g>
	<path class="st0" d="M5.4,126.8c-2,0-3.6-1.6-3.6-3.6v-10.5c0-10.8,4.2-21,11.8-28.6c7.6-7.6,17.8-11.8,28.6-11.8
		c15.4,0,29.7,9,36.4,23.1c0.6,1.3,0.4,2.8-0.5,3.8c-5.9,7-9.3,15.4-9.9,24.2c-0.1,1.9-1.7,3.3-3.6,3.3H5.4L5.4,126.8z M71.2,96.5
		c-5.9-10.4-17-17-29-17c-8.9,0-17.3,3.4-23.5,9.7S9,103.7,9,112.7v6.9h52.5C62.7,111.3,66,103.4,71.2,96.5z"/>
</g>
</svg>
