<?xml version="1.0" encoding="utf-8"?>
<!-- Generator: Adobe Illustrator 25.4.1, SVG Export Plug-In . SVG Version: 6.00 Build 0)  -->
<svg version="1.1" id="Layer_1" xmlns="http://www.w3.org/2000/svg" xmlns:xlink="http://www.w3.org/1999/xlink" x="0px" y="0px"
	 viewBox="0 0 150.6 150.6" style="enable-background:new 0 0 150.6 150.6;" xml:space="preserve">
<style type="text/css">
	.st0{fill:#FFFFFF;}
</style>
<g id="Electric_Plug-2">
	<path class="st0" d="M106.9,64.2c-0.5-0.7-1.2-1.2-2.1-1.2H77.7V26.1c0-1.4-1.1-2.5-2.5-2.4c-0.9,0-1.8,0.5-2.2,1.3L43.6,84
		c-0.6,1.2-0.1,2.7,1.1,3.3c0.3,0.2,0.7,0.3,1.1,0.3h27.1v36.9c0,1.1,0.8,2.1,1.9,2.4c0.2,0,0.4,0.1,0.6,0.1c0.9,0,1.8-0.5,2.2-1.4
		L107,66.6C107.4,65.8,107.4,64.9,106.9,64.2z M77.7,114.1V85.1c0-1.4-1.1-2.5-2.5-2.5H49.7l23.1-46.2v28.9c0,1.4,1.1,2.5,2.5,2.5
		h25.5L77.7,114.1z"/>
	<path class="st0" d="M135.3,32.4c3.9-4.9,3.5-11.9-0.9-16.3l-7-7c-1-0.9-2.5-0.9-3.5,0l-1.7,1.7l-7-7l-3.5,3.5l7,7l-3.5,3.5l-7-7
		l-3.5,3.5l7,7l-1.7,1.7c-1,1-1,2.5,0,3.5l7,7c3.8,3.9,9.8,4.7,14.5,2.1c8.2,11.6,12.7,25.5,12.6,39.7c0,38.1-30.9,68.9-69,68.9
		c-8.9,0-17.8-1.7-26-5.1l-1.9,4.6c37.8,15.4,80.9-2.7,96.3-40.5c3.6-8.9,5.5-18.3,5.5-27.9C149.1,59.9,144.3,44.9,135.3,32.4z
		 M131,30.1c-2.9,2.9-7.6,2.9-10.5,0l-5.2-5.2l10.5-10.4l5.2,5.2C133.8,22.5,133.8,27.2,131,30.1z"/>
	<path class="st0" d="M75.3,1.5C34.5,1.5,1.5,34.6,1.5,75.3c0,15.4,4.8,30.4,13.8,42.9c-3.9,4.9-3.5,11.9,0.9,16.3l7,7
		c0.5,0.5,1.1,0.7,1.7,0.7c0.7,0,1.3-0.3,1.7-0.7l1.7-1.7l7,7l3.5-3.5l-7-7l3.5-3.5l7,7l3.5-3.5l-7-7l1.7-1.7c1-1,1-2.5,0-3.5l-7-7
		c-3.9-3.8-9.8-4.7-14.5-2.1C10.8,103.4,6.4,89.5,6.4,75.3c0-38,30.9-68.9,68.9-68.9c9,0,17.8,1.7,26.1,5.1l1.9-4.6
		C94.4,3.3,84.9,1.5,75.3,1.5z M19.6,120.5c2.9-2.9,7.6-2.9,10.5,0l5.2,5.2l-10.5,10.4l-5.2-5.2C16.7,128.1,16.7,123.4,19.6,120.5z"
		/>
</g>
</svg>
