<?xml version="1.0" encoding="utf-8"?>
<!-- Generator: Adobe Illustrator 25.4.1, SVG Export Plug-In . SVG Version: 6.00 Build 0)  -->
<svg version="1.1" id="Layer_1" xmlns="http://www.w3.org/2000/svg" xmlns:xlink="http://www.w3.org/1999/xlink" x="0px" y="0px"
	 viewBox="0 0 170 170" style="enable-background:new 0 0 170 170;" xml:space="preserve">
<style type="text/css">
	.st0{fill-rule:evenodd;clip-rule:evenodd;fill:#FFFFFF;}
</style>
<g>
	<g>
		<g>
			<path class="st0" d="M7.7,29.7c0-7.6,6.1-13.7,13.7-13.7h123.2c7.6,0,13.7,6.1,13.7,13.7v59.4h-6.9V29.7c0-3.8-3-6.8-6.8-6.8
				H21.4c-3.8,0-6.8,3-6.8,6.8v89c0,3.8,3,6.8,6.8,6.8h61.9v6.9H21.4c-7.6,0-13.7-6.1-13.7-13.7V29.7z"/>
			<path class="st0" d="M154.9,53.6H11.1v-6.9h143.8L154.9,53.6L154.9,53.6z"/>
			<path class="st0" d="M59,73.3H28.2v-6.9H59V73.3z"/>
			<path class="st0" d="M120.6,74.2C99.9,74.2,83,91,83,111.8s16.9,37.6,37.6,37.6s37.6-16.9,37.6-37.6S141.4,74.2,120.6,74.2z
				 M76.2,111.8c0-24.6,19.9-44.5,44.5-44.5s44.5,19.9,44.5,44.5s-19.9,44.5-44.5,44.5S76.2,136.4,76.2,111.8z"/>
			<path class="st0" d="M100.1,101.5h41.1v34.2h-41.1V101.5z M107,108.4v20.5h27.4v-20.5C134.4,108.4,107,108.4,107,108.4z"/>
			<path class="st0" d="M107,94.7c0-7.6,6.1-13.7,13.7-13.7c7.6,0,13.7,6.1,13.7,13.7V105h-6.9V94.7c0-3.8-3-6.8-6.8-6.8
				s-6.8,3-6.8,6.8V105H107V94.7z"/>
		</g>
	</g>
</g>
</svg>
