<?xml version="1.0" encoding="utf-8"?>
<!-- Generator: Adobe Illustrator 25.4.1, SVG Export Plug-In . SVG Version: 6.00 Build 0)  -->
<svg version="1.1" id="Layer_1" xmlns="http://www.w3.org/2000/svg" xmlns:xlink="http://www.w3.org/1999/xlink" x="0px" y="0px"
	 viewBox="0 0 150.6 150.6" style="enable-background:new 0 0 150.6 150.6;" xml:space="preserve">
<style type="text/css">
	.st0{fill-rule:evenodd;clip-rule:evenodd;fill:#FFFFFF;}
</style>
<g id="Layer_31">
</g>
<g id="Layer_30">
</g>
<g id="Layer_29">
</g>
<g id="Layer_28">
</g>
<g id="Layer_27">
</g>
<g id="Layer_26">
</g>
<g id="Layer_25">
</g>
<g id="Layer_24">
</g>
<g id="Layer_23">
</g>
<g id="Layer_22">
</g>
<g id="Layer_21">
	<path class="st0" d="M46.5,108.4v17.2H8l4.5-17.2H46.5z M51.7,108.4h26.5v17.2H51.7V108.4z M83.4,125.7v-17.2h34l4.5,17.2H83.4z
		 M46.5,65.8v15.1H19.7l3.9-15.1H46.5z M46.5,86v17.2H13.9L18.3,86L46.5,86z M51.7,86h26.5v17.2H51.7L51.7,86z M78.2,65.8v15.1H51.7
		V65.8H78.2z M83.4,103.3V86h28.2l4.5,17.2H83.4z M108.3,60.6H80.8H49.1H21.6c-1.2,0-2.2,0.8-2.5,1.9L2.2,127.6
		c-0.2,0.8,0,1.6,0.5,2.2c0.5,0.6,1.2,1,2,1h44.4h31.7h44.4c0.8,0,1.6-0.4,2-1c0.5-0.6,0.7-1.5,0.5-2.2l-16.9-65.1
		C110.5,61.4,109.5,60.6,108.3,60.6z M87.2,55.6c-0.4,1.4,0.4,2.8,1.8,3.2c1.4,0.4,2.8-0.4,3.2-1.8c2.1-7.1,8.7-12.1,16.2-12.1
		c9.3,0,16.8,7.6,16.8,16.8c0,5.4-2.6,10.5-7,13.7c-1.2,0.8-1.4,2.5-0.6,3.6c0.5,0.7,1.3,1.1,2.1,1.1c0.5,0,1.1-0.2,1.5-0.5
		c5.7-4.1,9.1-10.8,9.1-17.9c0-12.1-9.9-22-22-22C98.6,39.7,89.9,46.3,87.2,55.6z M81.1,55.5c1.1,0,2.1-0.7,2.5-1.8
		c0.4-1.4-0.3-2.8-1.7-3.3l-10.3-3.4c-1.4-0.4-2.8,0.3-3.3,1.7c-0.4,1.4,0.3,2.8,1.7,3.3l10.3,3.4C80.6,55.5,80.9,55.5,81.1,55.5z
		 M83.1,31.4l6.4,8.8c0.5,0.7,1.3,1.1,2.1,1.1c0.5,0,1.1-0.2,1.5-0.5c1.2-0.8,1.4-2.5,0.6-3.6l-6.4-8.8c-0.8-1.2-2.5-1.4-3.6-0.6
		C82.5,28.6,82.2,30.2,83.1,31.4z M105.8,22.3v10.9c0,1.4,1.2,2.6,2.6,2.6c1.4,0,2.6-1.2,2.6-2.6V22.3c0-1.4-1.2-2.6-2.6-2.6
		C106.9,19.7,105.8,20.9,105.8,22.3z M129.4,28.3l-6.4,8.8c-0.8,1.2-0.6,2.8,0.6,3.6c0.5,0.3,1,0.5,1.5,0.5c0.8,0,1.6-0.4,2.1-1.1
		l6.4-8.8c0.8-1.2,0.6-2.8-0.6-3.6C131.9,26.9,130.3,27.2,129.4,28.3z M145.1,47.1l-10.3,3.4c-1.4,0.4-2.1,1.9-1.7,3.3
		c0.4,1.1,1.4,1.8,2.5,1.8c0.3,0,0.5,0,0.8-0.1l10.3-3.4c1.4-0.4,2.1-1.9,1.7-3.3C147.9,47.4,146.4,46.7,145.1,47.1z M146.7,71.5
		l-10.3-3.4c-1.4-0.4-2.8,0.3-3.3,1.7c-0.4,1.4,0.3,2.8,1.7,3.3l10.3,3.4c0.3,0.1,0.5,0.1,0.8,0.1c1.1,0,2.1-0.7,2.5-1.8
		C148.8,73.4,148,71.9,146.7,71.5z M133.6,92.1l-6.4-8.8c-0.8-1.2-2.5-1.4-3.6-0.6c-1.2,0.8-1.4,2.5-0.6,3.6l6.4,8.8
		c0.5,0.7,1.3,1.1,2.1,1.1c0.5,0,1.1-0.2,1.5-0.5C134.2,94.9,134.5,93.3,133.6,92.1z M83.4,80.9V65.8h22.9l3.9,15.1H83.4z"/>
</g>
<g id="Layer_20">
</g>
<g id="Layer_19">
</g>
<g id="Layer_18">
</g>
<g id="Layer_17">
</g>
<g id="Layer_16">
</g>
<g id="Layer_15">
</g>
<g id="Layer_14">
</g>
<g id="Layer_13">
</g>
<g id="Layer_12">
</g>
<g id="Layer_11">
</g>
<g id="Layer_10">
</g>
<g id="Layer_9">
</g>
<g id="Layer_8">
</g>
<g id="Layer_7">
</g>
<g id="Layer_6">
</g>
<g id="Layer_5">
</g>
<g id="Layer_4">
</g>
<g id="Layer_3">
</g>
<g id="Layer_2_00000087412267445442871780000004776816307045345980_">
</g>
</svg>
