<?xml version="1.0" encoding="utf-8"?>
<!-- Generator: Adobe Illustrator 25.4.1, SVG Export Plug-In . SVG Version: 6.00 Build 0)  -->
<svg version="1.1" id="Layer_1" xmlns="http://www.w3.org/2000/svg" xmlns:xlink="http://www.w3.org/1999/xlink" x="0px" y="0px"
	 viewBox="0 0 370.9 370.9" style="enable-background:new 0 0 370.9 370.9;" xml:space="preserve">
<path d="M277.4,113.4c0-50.8-41.2-92-92-92s-92,41.2-92,92s41.2,92,92,92S277.4,164.2,277.4,113.4z M117.4,113.4
	c0-37.6,30.4-68,68-68s68,30.4,68,68s-30.4,68-68,68S117.4,151,117.4,113.4z"/>
<path d="M31.4,346.2c2,1.2,4,1.6,6,1.6c4,0,8.4-2,10.4-6c28-49.6,80.8-80.4,137.6-80.4s109.6,30.8,138,80.4
	c3.2,5.6,10.8,7.6,16.4,4.4s7.6-10.8,4.4-16.4c-32.4-56.8-93.2-92.4-158.8-92.4S59,273,26.6,329.8C23.4,335.4,25.4,343,31.4,346.2
	L31.4,346.2z"/>
</svg>
