<?xml version="1.0" encoding="utf-8"?>
<!-- Generator: Adobe Illustrator 25.4.1, SVG Export Plug-In . SVG Version: 6.00 Build 0)  -->
<svg version="1.1" id="Layer_1" xmlns="http://www.w3.org/2000/svg" xmlns:xlink="http://www.w3.org/1999/xlink" x="0px" y="0px"
	 viewBox="0 0 370 370" style="enable-background:new 0 0 370 370;" xml:space="preserve">
<g id="love">
	<path d="M339.2,55c-38.7-38.6-101.3-38.6-140.1,0L185,69.2L170.9,55C132.1,16.4,69.5,16.4,30.8,55c-38.6,38.8-38.6,101.4,0,140.2
		l144.9,144.9c5.1,5.1,13.4,5.2,18.5,0.1c0,0,0.1-0.1,0.1-0.1l144.9-144.9C377.8,156.5,377.8,93.8,339.2,55z M320.7,176.6L185,312.4
		L49.3,176.6c-28.4-28.5-28.4-74.6,0-103c28.5-28.4,74.6-28.4,103.2,0l23.3,23.3c5.1,5.1,13.4,5.2,18.5,0.1c0,0,0.1-0.1,0.1-0.1
		l23.3-23.3c28.5-28.4,74.6-28.4,103.2,0C349.2,102.1,349.2,148.2,320.7,176.6L320.7,176.6z"/>
</g>
</svg>
